<?xml version="1.0" encoding="UTF-8" standalone="no"?>
<!-- Created with Inkscape (http://www.inkscape.org/) -->

<svg
   xmlns:dc="http://purl.org/dc/elements/1.1/"
   xmlns:cc="http://creativecommons.org/ns#"
   xmlns:rdf="http://www.w3.org/1999/02/22-rdf-syntax-ns#"
   xmlns:svg="http://www.w3.org/2000/svg"
   xmlns="http://www.w3.org/2000/svg"
   xmlns:sodipodi="http://sodipodi.sourceforge.net/DTD/sodipodi-0.dtd"
   xmlns:inkscape="http://www.inkscape.org/namespaces/inkscape"
   width="728px"
   height="90px"
   id="svg3064"
   version="1.1"
   inkscape:version="0.48.5 r10040"
   sodipodi:docname="Neues Dokument 5">
  <defs
     id="defs3066" />
  <sodipodi:namedview
     id="base"
     pagecolor="#ffffff"
     bordercolor="#666666"
     borderopacity="1.0"
     inkscape:pageopacity="0.0"
     inkscape:pageshadow="2"
     inkscape:zoom="1.5"
     inkscape:cx="406.05468"
     inkscape:cy="38.640864"
     inkscape:document-units="px"
     inkscape:current-layer="layer1"
     showgrid="false"
     inkscape:window-width="1149"
     inkscape:window-height="821"
     inkscape:window-x="315"
     inkscape:window-y="284"
     inkscape:window-maximized="0" />
  <metadata
     id="metadata3069">
    <rdf:RDF>
      <cc:Work
         rdf:about="">
        <dc:format>image/svg+xml</dc:format>
        <dc:type
           rdf:resource="http://purl.org/dc/dcmitype/StillImage" />
        <dc:title></dc:title>
      </cc:Work>
    </rdf:RDF>
  </metadata>
  <g
     id="layer1"
     inkscape:label="Layer 1"
     inkscape:groupmode="layer">
    <g
       id="g3054"
       transform="matrix(0.36,0,0,0.36,271.30921,-39.99964)">
      <path
         d="m 355.491,276.615 v -98.616 c 0,-14.123 -11.449,-25.572 -25.572,-25.572 H 170.215 c -14.123,0 -25.572,11.449 -25.572,25.572 v 98.616 c 0,14.123 11.449,25.572 25.572,25.572 h 48.929 l 13.499,21.082 8.878,24.302 h 66.968 l 13.262,-45.385 h 8.168 c 14.123,0 25.572,-11.448 25.572,-25.571 z M 162.012,255.868 v -77.869 c 0,-4.523 3.68,-8.202 8.202,-8.202 h 159.704 c 4.523,0 8.202,3.68 8.202,8.202 v 77.869 c 0,4.523 -3.68,8.202 -8.202,8.202 h -4.536 v -4.913 c 0.025,-1.422 -0.021,-11.483 -6.047,-17.647 -2.926,-2.993 -6.816,-4.575 -11.251,-4.575 -1.504,0 -2.941,0.183 -4.291,0.531 -0.771,-1.434 -1.729,-2.814 -2.927,-4.038 -2.926,-2.993 -6.817,-4.575 -11.251,-4.575 -1.246,0 -2.446,0.123 -3.589,0.363 -0.864,-1.925 -2.03,-3.809 -3.609,-5.424 -2.925,-2.993 -6.816,-4.575 -11.251,-4.575 -1.751,0 -3.41,0.248 -4.948,0.718 v -14.149 c 0.02,-1.162 -0.009,-8.521 -3.636,-14.499 l 0.046,-0.154 -1.507,-1.972 c -2.756,-3.608 -7.034,-5.595 -12.045,-5.595 -0.003,0 -0.007,0 -0.01,0 h -0.146 c -6.105,0 -11.008,4.574 -11.548,5.096 l -0.334,0.357 c -5.151,6.097 -4.726,15.007 -4.564,16.944 v 47.612 c -1.888,-1.711 -4.144,-3.366 -6.714,-4.56 l -0.036,-0.126 -2.323,-0.845 c -4.85,-1.765 -10.178,-1.034 -15.031,2.073 l -0.132,0.084 c -5.875,3.762 -7.789,11.244 -7.988,12.085 l -0.088,0.481 c -0.058,0.436 -0.095,0.871 -0.121,1.303 h -29.828 c -4.521,0 -8.201,-3.68 -8.201,-8.202 z m 139.167,81.951 H 248.34 l -6.906,-18.906 -26.96,-42.104 -0.294,-0.411 c -1.308,-1.641 -4.861,-7.319 -4.379,-12.091 0.333,-1.182 1.561,-4.47 3.598,-5.83 l 0.209,-0.13 c 0.047,-0.03 0.091,-0.061 0.136,-0.091 1.824,-1.147 3.574,-1.596 5.22,-1.334 l 1.348,0.416 c 3.485,1.077 6.684,4.288 8.65,6.731 h -10e-4 c 0.74,0.92 1.311,1.735 1.648,2.281 l 11.619,17.661 v -0.001 l 0.001,0.001 V 205.74 l -0.024,-0.485 c -0.169,-1.764 -0.104,-6.862 2.115,-9.731 0.92,-0.8 2.925,-2.152 4.509,-2.204 l 0.172,0.001 c 0.056,0 0.112,-0.001 0.166,-0.003 1.542,0.014 2.762,0.403 3.638,1.157 l 0.707,0.837 c 2.51,2.97 2.987,8.469 2.959,10.32 l -10e-4,55.831 h 9.752 v -31.23 l 0.653,0.498 c 0.893,-1.17 2.339,-1.763 4.295,-1.763 1.817,0 3.172,0.516 4.263,1.624 0.981,0.997 1.678,2.37 2.173,3.815 -0.011,0.014 -0.022,0.027 -0.033,0.04 l 0.064,0.049 c 0.887,2.638 1.1,5.5 1.08,6.782 l -10e-4,22.79 h -0.001 l 0,7.273 h 0.001 v 0 h 9.752 v -29.904 c 0.007,-0.378 0.007,-1.372 -0.108,-2.737 0.393,-0.062 0.811,-0.097 1.258,-0.097 1.817,0 3.172,0.516 4.263,1.624 2.788,2.833 3.316,8.687 3.285,10.687 l -10e-4,13.154 h -0.001 l -10e-4,16.908 h 10e-4 v 0 h 9.752 v -29.903 c 0.009,-0.508 0.007,-2.12 -0.271,-4.261 0.445,-0.083 0.925,-0.127 1.442,-0.127 1.817,0 3.171,0.516 4.262,1.624 2.788,2.832 3.316,8.687 3.285,10.687 l 0,5.072 h -0.001 l -10e-4,24.293 -4.039,13.824 h 10e-4 l -10.415,35.634 z"
         id="path3056"
         inkscape:connector-curvature="0"
         style="fill:#231f20" />
    </g>
    <text
       xml:space="preserve"
       style="font-size:40px;font-style:normal;font-weight:normal;line-height:125%;letter-spacing:0px;word-spacing:0px;fill:#000000;fill-opacity:1;stroke:none;font-family:Sans"
       x="351.9035"
       y="19.996429"
       id="text3093"
       sodipodi:linespacing="125%"><tspan
         sodipodi:role="line"
         id="tspan3095"
         x="351.9035"
         y="19.996429"
         style="font-size:6px;font-style:normal;font-variant:normal;font-weight:normal;font-stretch:normal;fill:#ffffff;font-family:Liberation Mono;-inkscape-font-specification:Liberation Mono">tslib</tspan></text>
  </g>
</svg>
