<?xml version="1.0" encoding="utf-8"?>
<!-- Generator: Adobe Illustrator 16.0.0, SVG Export Plug-In . SVG Version: 6.00 Build 0)  -->
<!DOCTYPE svg PUBLIC "-//W3C//DTD SVG 1.1//EN" "http://www.w3.org/Graphics/SVG/1.1/DTD/svg11.dtd">
<svg version="1.1" id="Layer_1" xmlns="http://www.w3.org/2000/svg" xmlns:xlink="http://www.w3.org/1999/xlink" x="0px" y="0px"
	 width="155.901px" height="43.092px" viewBox="0 0 155.901 43.092" enable-background="new 0 0 155.901 43.092"
	 xml:space="preserve">
<g>
	<path fill="#273C4E" d="M25.605,22.088h2.877V0.777h-2.877V22.088z M48.755,16.121L33.706,0.403l-0.707,0.375v21.311h2.91V6.95
		l14.965,15.566l0.792-0.429V0.777h-2.911V16.121z M11.243,9.939v2.988h8.219c-0.705,3.901-4.115,6.862-8.22,6.862
		s-7.515-2.96-8.22-6.862H0c0.732,5.558,5.484,9.849,11.242,9.849c5.758,0,10.511-4.291,11.242-9.849
		c0.064-0.489,0.102-0.987,0.102-1.494c0-0.506-0.037-1.004-0.102-1.494H11.243z M11.242,3.078c2.308,0,4.396,0.936,5.908,2.447
		l2.113-2.112C17.21,1.36,14.375,0.09,11.242,0.09C5.484,0.09,0.732,4.381,0,9.939h3.022C3.727,6.038,7.138,3.078,11.242,3.078z
		 M55.396,0.777v2.911h9.619l-10.121,18.4h14.686v-2.877h-9.977L69.781,0.777H55.396z M128.013,22.088h11.809v-2.877h-8.932v-6.34
		h8.932V9.994h-8.932V3.688h8.932V0.777h-11.809V22.088z M113.667,9.939v2.988h8.22c-0.705,3.901-4.116,6.862-8.22,6.862
		c-4.104,0-7.516-2.96-8.22-6.862h-3.022c0.731,5.558,5.484,9.849,11.242,9.849s10.51-4.291,11.242-9.849
		c0.064-0.489,0.101-0.987,0.101-1.494c0-0.506-0.036-1.004-0.101-1.494H113.667z M149.903,12.567c3.256,0,5.895-2.639,5.895-5.895
		c0-3.256-2.639-5.895-5.895-5.895h-6.201v21.31h2.905v-9.521l5.911,9.521h3.339L149.903,12.567z M146.607,3.205h0.078
		c0.357,0,1.87,0,3.218,0c1.915,0,3.467,1.552,3.467,3.467c0,1.915-1.552,3.467-3.467,3.467h-3.296V3.205z M96.244,16.121
		L81.193,0.403l-0.706,0.375v21.311h2.91V6.95l14.965,15.566l0.792-0.429V0.777h-2.91V16.121z M113.667,3.078
		c2.307,0,4.396,0.936,5.908,2.447l2.112-2.112c-2.053-2.053-4.889-3.323-8.021-3.323c-5.758,0-10.511,4.292-11.243,9.85h3.023
		C106.151,6.038,109.563,3.078,113.667,3.078z M73.094,22.088h2.877V0.777h-2.877V22.088z"/>
</g>
<g>
	<path fill="#CDD500" d="M40.101,28.782h-1.987v2.345h-1.565v1.587h1.565v6.564h1.987v-6.564h1.964v-1.567h-1.964V28.782z
		 M58.611,32.197c-1.013-0.851-2.197-1.276-3.552-1.276c-1.317,0-2.484,0.432-3.5,1.296s-1.525,1.852-1.525,2.961
		c0,1.163,0.512,2.175,1.536,3.036c1.024,0.86,2.233,1.291,3.626,1.291c1.302,0,2.45-0.436,3.444-1.306
		c0.994-0.871,1.49-1.878,1.49-3.021C60.13,34.042,59.624,33.048,58.611,32.197z M57.286,37.02c-0.617,0.527-1.336,0.79-2.159,0.79
		c-0.845,0-1.582-0.257-2.21-0.771c-0.628-0.513-0.942-1.112-0.942-1.797c0-0.717,0.31-1.335,0.931-1.852
		c0.62-0.517,1.36-0.775,2.221-0.775c0.837,0,1.561,0.255,2.17,0.765c0.609,0.511,0.914,1.111,0.914,1.802
		C58.211,35.881,57.903,36.493,57.286,37.02z M47.325,31.369c-0.423,0.299-0.855,0.783-1.296,1.454v-1.675h-1.942v8.131h1.988
		v-4.504c0-0.604,0.226-1.109,0.679-1.513c0.453-0.404,1.015-0.606,1.685-0.606c0.122,0,0.373,0.033,0.754,0.099l0.605-1.715
		c-0.358-0.079-0.632-0.118-0.822-0.118C48.297,30.921,47.747,31.07,47.325,31.369z M11.825,39.278h1.987V26.486h-1.987V39.278z
		 M8.414,32.207c-0.967-0.857-2.128-1.286-3.484-1.286c-1.378,0-2.545,0.422-3.5,1.266c-0.956,0.844-1.434,1.841-1.434,2.991
		c0,1.229,0.472,2.258,1.416,3.085c0.944,0.828,2.117,1.242,3.518,1.242c1.828,0,3.286-0.607,4.375-1.823l-1.451-0.946
		c-0.762,0.809-1.706,1.212-2.833,1.212c-0.731,0-1.407-0.191-2.027-0.576s-1.019-0.994-1.193-1.828h8.041
		C9.856,34.177,9.381,33.064,8.414,32.207z M2.006,34.173c0.586-1.117,1.561-1.675,2.924-1.675c1.249,0,2.193,0.558,2.833,1.675
		H2.006z M24.088,32.207c-0.967-0.857-2.128-1.286-3.483-1.286c-1.378,0-2.545,0.422-3.501,1.266s-1.433,1.841-1.433,2.991
		c0,1.229,0.472,2.258,1.416,3.085c0.944,0.828,2.117,1.242,3.518,1.242c1.827,0,3.285-0.607,4.375-1.823l-1.451-0.946
		c-0.761,0.809-1.706,1.212-2.833,1.212c-0.731,0-1.407-0.191-2.027-0.576s-1.019-0.994-1.194-1.828h8.041
		C25.531,34.177,25.055,33.064,24.088,32.207z M17.681,34.173c0.586-1.117,1.561-1.675,2.924-1.675c1.249,0,2.193,0.558,2.833,1.675
		H17.681z M28.497,32.167c-0.975,0.831-1.462,1.877-1.462,3.139c0,1.11,0.489,2.087,1.468,2.932c0.978,0.845,2.119,1.267,3.42,1.267
		c0.952,0,1.934-0.25,2.947-0.749v-1.962c-1.097,0.657-2.071,0.986-2.924,0.986c-0.838,0-1.546-0.258-2.124-0.774
		c-0.579-0.516-0.868-1.151-0.868-1.906c0-0.671,0.308-1.255,0.925-1.755c0.617-0.499,1.336-0.749,2.159-0.749
		c0.891,0,1.835,0.276,2.833,0.828v-1.912c-0.929-0.395-1.832-0.592-2.707-0.592C30.694,30.92,29.472,31.336,28.497,32.167z
		 M95.938,34.318c-1.024-0.347-1.536-0.704-1.536-1.072c0-0.512,0.404-0.769,1.211-0.769c0.343,0,0.64,0.054,0.891,0.163
		c0.252,0.108,0.549,0.268,0.891,0.478l1.325-1.005c-1.104-0.795-2.102-1.192-2.992-1.192s-1.632,0.225-2.222,0.674
		c-0.59,0.45-0.885,1.013-0.885,1.689c0,0.546,0.207,1.003,0.622,1.374s1.163,0.738,2.244,1.101c1.081,0.361,1.622,0.77,1.622,1.223
		c0,0.257-0.154,0.481-0.462,0.675c-0.309,0.194-0.669,0.291-1.08,0.291c-0.594,0-1.165-0.229-1.713-0.689l-1.564,0.65
		c0.853,1.064,1.945,1.597,3.277,1.597c0.876,0,1.637-0.255,2.284-0.764c0.647-0.508,0.971-1.104,0.971-1.786
		c0-0.585-0.225-1.083-0.674-1.496C97.699,35.045,96.963,34.665,95.938,34.318z M131.421,32.207
		c-0.967-0.857-2.129-1.286-3.483-1.286c-1.378,0-2.546,0.422-3.501,1.266c-0.956,0.844-1.434,1.841-1.434,2.991
		c0,1.229,0.473,2.258,1.416,3.085c0.944,0.828,2.117,1.242,3.519,1.242c1.827,0,3.285-0.607,4.374-1.823l-1.45-0.946
		c-0.762,0.809-1.706,1.212-2.833,1.212c-0.73,0-1.406-0.191-2.027-0.576c-0.62-0.385-1.019-0.994-1.193-1.828h8.041
		C132.863,34.177,132.388,33.064,131.421,32.207z M125.014,34.173c0.586-1.117,1.561-1.675,2.924-1.675
		c1.248,0,2.192,0.558,2.832,1.675H125.014z M120.242,28.782h-1.987v2.345h-1.564v1.587h1.564v6.564h1.987v-6.564h1.964v-1.567
		h-1.964V28.782z M155.228,35.459c-0.449-0.414-1.186-0.794-2.21-1.141s-1.536-0.704-1.536-1.072c0-0.512,0.403-0.769,1.211-0.769
		c0.343,0,0.64,0.054,0.891,0.163c0.251,0.108,0.548,0.268,0.891,0.478l1.325-1.005c-1.104-0.795-2.102-1.192-2.992-1.192
		c-0.892,0-1.632,0.225-2.222,0.674c-0.59,0.45-0.886,1.013-0.886,1.689c0,0.546,0.208,1.003,0.623,1.374s1.163,0.738,2.244,1.101
		c1.081,0.361,1.622,0.77,1.622,1.223c0,0.257-0.154,0.481-0.463,0.675c-0.309,0.194-0.668,0.291-1.079,0.291
		c-0.594,0-1.165-0.229-1.713-0.689l-1.565,0.65c0.853,1.064,1.945,1.597,3.278,1.597c0.875,0,1.637-0.255,2.284-0.764
		c0.647-0.508,0.971-1.104,0.971-1.786C155.901,36.37,155.677,35.872,155.228,35.459z M147.096,31.645
		c-0.543-0.483-1.188-0.724-1.938-0.724c-0.612,0-1.148,0.135-1.611,0.404c-0.463,0.27-0.942,0.7-1.439,1.291
		c-0.281-0.591-0.626-1.021-1.033-1.291c-0.407-0.269-0.969-0.404-1.685-0.404c-0.548,0-1.034,0.118-1.456,0.354
		c-0.423,0.237-0.866,0.611-1.331,1.124v-1.251h-1.965v8.131h1.965v-4.583c0-0.638,0.21-1.173,0.628-1.606
		c0.419-0.434,0.93-0.65,1.531-0.65c1.013,0,1.519,0.532,1.519,1.597v5.243h1.987v-4.426c0-0.676,0.204-1.244,0.613-1.704
		c0.408-0.46,0.907-0.69,1.495-0.69c1.031,0,1.547,0.45,1.547,1.351v5.47h1.987v-5.913C147.91,32.701,147.639,32.128,147.096,31.645
		z M112.732,34.318c-1.024-0.347-1.536-0.704-1.536-1.072c0-0.512,0.403-0.769,1.211-0.769c0.343,0,0.64,0.054,0.891,0.163
		c0.251,0.108,0.548,0.268,0.891,0.478l1.325-1.005c-1.104-0.795-2.102-1.192-2.992-1.192c-0.892,0-1.632,0.225-2.222,0.674
		c-0.59,0.45-0.886,1.013-0.886,1.689c0,0.546,0.208,1.003,0.623,1.374s1.163,0.738,2.244,1.101c1.081,0.361,1.622,0.77,1.622,1.223
		c0,0.257-0.154,0.481-0.463,0.675c-0.309,0.194-0.668,0.291-1.079,0.291c-0.594,0-1.165-0.229-1.713-0.689l-1.565,0.65
		c0.853,1.064,1.945,1.597,3.278,1.597c0.875,0,1.637-0.255,2.284-0.764c0.646-0.508,0.971-1.104,0.971-1.786
		c0-0.585-0.225-1.083-0.674-1.496C114.493,35.045,113.757,34.665,112.732,34.318z M107.062,31.147l-2.363,4.417l-3.418-4.417
		h-2.254l4.756,6.129l-3.111,5.815h2.075l6.365-11.944H107.062z M72.382,39.278h1.964v-8.131h-1.964V39.278z M69.125,31.65
		c-0.605-0.486-1.334-0.729-2.188-0.729c-0.571,0-1.089,0.126-1.553,0.379s-0.982,0.652-1.553,1.197v-1.35h-1.942v8.131h1.965
		v-4.426c0-0.683,0.24-1.266,0.719-1.749c0.48-0.482,1.051-0.724,1.713-0.724c0.51,0,0.931,0.145,1.262,0.434
		c0.331,0.29,0.497,0.654,0.497,1.094v5.371h1.988v-5.874C70.033,32.721,69.73,32.136,69.125,31.65z M74.432,27.555
		c-0.301-0.259-0.656-0.389-1.068-0.389c-0.418,0-0.78,0.13-1.085,0.389s-0.457,0.567-0.457,0.921c0,0.361,0.152,0.67,0.457,0.927
		c0.305,0.256,0.667,0.384,1.085,0.384c0.412,0,0.767-0.128,1.068-0.384c0.301-0.256,0.452-0.565,0.452-0.927
		C74.883,28.122,74.733,27.814,74.432,27.555z M77.701,32.167c-0.975,0.831-1.462,1.877-1.462,3.139c0,1.11,0.489,2.087,1.468,2.932
		c0.978,0.845,2.118,1.267,3.42,1.267c0.952,0,1.935-0.25,2.947-0.749v-1.962c-1.097,0.657-2.071,0.986-2.924,0.986
		c-0.838,0-1.546-0.258-2.125-0.774c-0.579-0.516-0.868-1.151-0.868-1.906c0-0.671,0.309-1.255,0.926-1.755
		c0.616-0.499,1.336-0.749,2.158-0.749c0.891,0,1.835,0.276,2.833,0.828v-1.912c-0.93-0.395-1.832-0.592-2.707-0.592
		C79.897,30.92,78.675,31.336,77.701,32.167z"/>
</g>
</svg>
