<?xml version="1.0" encoding="UTF-8" standalone="no"?>
<!-- Created with Inkscape (http://www.inkscape.org/) -->

<svg
   xmlns:dc="http://purl.org/dc/elements/1.1/"
   xmlns:cc="http://creativecommons.org/ns#"
   xmlns:rdf="http://www.w3.org/1999/02/22-rdf-syntax-ns#"
   xmlns:svg="http://www.w3.org/2000/svg"
   xmlns="http://www.w3.org/2000/svg"
   xmlns:sodipodi="http://sodipodi.sourceforge.net/DTD/sodipodi-0.dtd"
   xmlns:inkscape="http://www.inkscape.org/namespaces/inkscape"
   width="95.411758mm"
   height="61.115578mm"
   viewBox="0 0 338.07316 216.55126"
   id="svg2"
   version="1.1"
   inkscape:version="0.91 r13725"
   sodipodi:docname="TSLIB logo.svg">
  <defs
     id="defs4">
    <inkscape:path-effect
       effect="spiro"
       id="path-effect5359"
       is_visible="true" />
    <inkscape:path-effect
       effect="spiro"
       id="path-effect5355"
       is_visible="true" />
    <inkscape:path-effect
       effect="spiro"
       id="path-effect4545"
       is_visible="true" />
    <inkscape:path-effect
       effect="spiro"
       id="path-effect4541"
       is_visible="true" />
    <inkscape:path-effect
       effect="spiro"
       id="path-effect4537"
       is_visible="true" />
    <inkscape:path-effect
       effect="spiro"
       id="path-effect4533"
       is_visible="true" />
    <inkscape:path-effect
       effect="spiro"
       id="path-effect4529"
       is_visible="true" />
    <inkscape:path-effect
       effect="spiro"
       id="path-effect4525"
       is_visible="true" />
    <inkscape:path-effect
       effect="spiro"
       id="path-effect4495"
       is_visible="true" />
    <inkscape:path-effect
       effect="spiro"
       id="path-effect4491"
       is_visible="true" />
    <inkscape:path-effect
       effect="spiro"
       id="path-effect4487"
       is_visible="true" />
    <inkscape:path-effect
       effect="spiro"
       id="path-effect4483"
       is_visible="true" />
    <marker
       inkscape:stockid="Arrow1Lend"
       orient="auto"
       refY="0"
       refX="0"
       id="Arrow1Lend"
       style="overflow:visible"
       inkscape:isstock="true">
      <path
         id="path4156"
         d="M 0,0 5,-5 -12.5,0 5,5 0,0 Z"
         style="fill:#000000;fill-opacity:1;fill-rule:evenodd;stroke:#000000;stroke-width:1pt;stroke-opacity:1"
         transform="matrix(-0.8,0,0,-0.8,-10,0)"
         inkscape:connector-curvature="0" />
    </marker>
    <marker
       inkscape:stockid="Arrow1Lstart"
       orient="auto"
       refY="0"
       refX="0"
       id="Arrow1Lstart"
       style="overflow:visible"
       inkscape:isstock="true">
      <path
         id="path4153"
         d="M 0,0 5,-5 -12.5,0 5,5 0,0 Z"
         style="fill:#000000;fill-opacity:1;fill-rule:evenodd;stroke:#000000;stroke-width:1pt;stroke-opacity:1"
         transform="matrix(0.8,0,0,0.8,10,0)"
         inkscape:connector-curvature="0" />
    </marker>
  </defs>
  <sodipodi:namedview
     id="base"
     pagecolor="#ffffff"
     bordercolor="#666666"
     borderopacity="1.0"
     inkscape:pageopacity="0.0"
     inkscape:pageshadow="2"
     inkscape:zoom="1.4"
     inkscape:cx="50.54507"
     inkscape:cy="54.461438"
     inkscape:document-units="px"
     inkscape:current-layer="layer1"
     showgrid="false"
     showguides="false"
     fit-margin-top="0"
     fit-margin-left="0"
     fit-margin-right="0"
     fit-margin-bottom="0"
     inkscape:window-width="1680"
     inkscape:window-height="1024"
     inkscape:window-x="1920"
     inkscape:window-y="0"
     inkscape:window-maximized="1" />
  <metadata
     id="metadata7">
    <rdf:RDF>
      <cc:Work
         rdf:about="">
        <dc:format>image/svg+xml</dc:format>
        <dc:type
           rdf:resource="http://purl.org/dc/dcmitype/StillImage" />
        <dc:title></dc:title>
      </cc:Work>
    </rdf:RDF>
  </metadata>
  <g
     inkscape:label="Layer 1"
     inkscape:groupmode="layer"
     id="layer1"
     transform="translate(-109.72766,-389.80055)">
    <g
       style="font-style:normal;font-weight:normal;font-size:15px;line-height:125%;font-family:sans-serif;letter-spacing:0px;word-spacing:0px;fill:#000000;fill-opacity:1;stroke:none;stroke-width:1px;stroke-linecap:butt;stroke-linejoin:miter;stroke-opacity:1"
       id="text4467"
       transform="matrix(0.66667,0,0,0.66667,92.920485,166.02373)">
      <path
         d="m 488.88291,347.12595 c -0.12,0.135 -0.195,0.225 -0.33,0.405 -0.345,0.45 -0.525,0.6 -0.69,0.6 -0.225,0 -0.36,-0.195 -0.465,-0.615 -0.03,-0.12 -0.045,-0.21 -0.06,-0.255 -0.375,-1.515 -0.54,-2.205 -0.54,-2.43 0.66,-1.155 1.2,-1.815 1.47,-1.815 0.09,0 0.21,0.045 0.36,0.12 0.18,0.105 0.285,0.135 0.405,0.135 0.315,0 0.525,-0.225 0.525,-0.54 0,-0.315 -0.255,-0.555 -0.615,-0.555 -0.66,0 -1.23,0.54 -2.265,2.145 l -0.165,-0.825 c -0.21,-1.02 -0.375,-1.32 -0.78,-1.32 -0.33,0 -0.84,0.135 -1.755,0.435 l -0.165,0.06 0.06,0.225 c 0.57,-0.135 0.705,-0.165 0.84,-0.165 0.375,0 0.465,0.135 0.675,1.035 l 0.435,1.845 -1.23,1.755 c -0.3,0.45 -0.6,0.72 -0.765,0.72 -0.09,0 -0.24,-0.045 -0.39,-0.135 -0.195,-0.105 -0.36,-0.15 -0.48,-0.15 -0.285,0 -0.51,0.225 -0.51,0.525 0,0.39 0.3,0.63 0.75,0.63 0.465,0 0.645,-0.135 1.395,-1.05 0.405,-0.48 0.72,-0.885 1.35,-1.755 l 0.45,1.8 c 0.195,0.765 0.39,1.005 0.87,1.005 0.57,0 0.96,-0.36 1.83,-1.71 l -0.21,-0.12 z"
         style="font-style:italic;font-variant:normal;font-weight:normal;font-stretch:normal;font-family:Times;-inkscape-font-specification:Times"
         id="path5071"
         inkscape:connector-curvature="0" />
    </g>
    <path
       style="fill:none;fill-rule:evenodd;stroke:#000000;stroke-width:0.66667002px;stroke-linecap:butt;stroke-linejoin:miter;stroke-opacity:1"
       d="m 383.56922,515.81466 c 0.22593,-0.25268 0.54363,-0.42147 0.87948,-0.46726 0.33584,-0.0458 0.68713,0.0318 0.97247,0.21472 0.0428,0.0275 0.0842,0.0572 0.12833,0.0827 0.0441,0.0255 0.0913,0.0467 0.14142,0.0554 0.0501,0.009 0.10362,0.004 0.14866,-0.0195 0.0225,-0.0118 0.0427,-0.0284 0.0579,-0.0487 0.0153,-0.0204 0.0256,-0.0446 0.0287,-0.0698 0.003,-0.0279 -0.002,-0.0562 0,-0.0842 0.002,-0.0375 0.0167,-0.074 0.0394,-0.10391 0.0228,-0.0299 0.0536,-0.0534 0.0877,-0.0691 0.0683,-0.0314 0.14787,-0.0314 0.22093,-0.0137 0.14612,0.0355 0.26788,0.13623 0.40954,0.18669 0.11551,0.0412 0.24321,0.0474 0.36217,0.0176 0.11896,-0.0297 0.22871,-0.0953 0.31127,-0.18598"
       id="path4527"
       inkscape:path-effect="#path-effect4529"
       inkscape:original-d="m 383.56922,515.81466 c 0.65039,-0.0743 1.19209,-0.25254 1.85195,-0.25254 0.0525,0 0.46221,0.0429 0.50509,0 0.0199,-0.0199 -0.0199,-0.0643 0,-0.0842 0.0742,-0.0742 0.65115,0 0.75761,0 0.15139,0 0.67344,-0.005 0.67344,-0.16836"
       inkscape:connector-curvature="0" />
    <path
       style="fill:none;fill-rule:evenodd;stroke:#000000;stroke-width:0.66667002px;stroke-linecap:butt;stroke-linejoin:miter;stroke-opacity:1"
       d="m 382.47488,511.01641 c 1.35766,0.2514 2.75118,0.30828 4.12481,0.16836 0.47733,-0.0486 0.96653,-0.12008 1.43106,0 0.1467,0.0379 0.28852,0.0947 0.4209,0.16836"
       id="path4531"
       inkscape:path-effect="#path-effect4533"
       inkscape:original-d="m 382.47488,511.01641 c 1.40286,-0.0713 2.76041,-0.17274 4.12481,0.16836 0.30243,0.0756 1.208,-0.11153 1.43106,0 0.2317,0.11585 0.11866,0.16836 0.4209,0.16836"
       inkscape:connector-curvature="0" />
    <path
       style="fill:none;fill-rule:evenodd;stroke:#000000;stroke-width:0.66667002px;stroke-linecap:butt;stroke-linejoin:miter;stroke-opacity:1"
       d="m 382.22235,477.93375 c 0.19425,0.0412 0.39125,0.0693 0.58925,0.0842 0.50383,0.0379 1.01008,-0.01 1.51524,0 0.64684,0.0128 1.30037,0.11988 1.93613,0 0.49964,-0.0942 0.97173,-0.33026 1.34688,-0.67344"
       id="path4535"
       inkscape:path-effect="#path-effect4537"
       inkscape:original-d="m 382.22235,477.93375 c 0.34798,-0.0388 0.3218,-0.005 0.58925,0.0842 0.26265,0.0876 1.18331,0 1.51524,0 0.59029,0 1.36412,0.0953 1.93613,0 0.49911,-0.0832 0.90397,-0.45198 1.34688,-0.67344"
       inkscape:connector-curvature="0" />
    <path
       style="fill:none;fill-rule:evenodd;stroke:#000000;stroke-width:0.66667002px;stroke-linecap:butt;stroke-linejoin:miter;stroke-opacity:1"
       d="m 382.22235,475.15582 c -0.008,-0.11734 0.0217,-0.23704 0.0842,-0.33672 0.099,-0.15804 0.2729,-0.25797 0.45375,-0.30354 0.18086,-0.0456 0.37012,-0.0424 0.5564,-0.0332 0.14032,0.007 0.28147,0.0172 0.4209,0 0.22989,-0.0284 0.44496,-0.13022 0.67344,-0.16836 0.33272,-0.0555 0.67387,0.0265 1.01015,0 0.19788,-0.0156 0.39138,-0.0687 0.58926,-0.0842 0.056,-0.004 0.11246,-0.006 0.16836,0 0.089,0.009 0.17842,0.038 0.24558,0.0971 0.0336,0.0295 0.061,0.0664 0.0777,0.10793 0.0166,0.0415 0.0221,0.0878 0.0135,0.13166 -0.008,0.0413 -0.0288,0.08 -0.0586,0.10981 -0.0298,0.0298 -0.0685,0.0504 -0.10981,0.0585 l 0.0842,0.0842"
       id="path4539"
       inkscape:path-effect="#path-effect4541"
       inkscape:original-d="m 382.22235,475.15582 c 0.0281,-0.11224 0.0119,-0.24638 0.0842,-0.33672 0.0284,-0.0355 0.93561,-0.32844 1.01015,-0.33672 0.13944,-0.0155 0.28146,0.0155 0.4209,0 0.22997,-0.0255 0.44346,-0.1428 0.67344,-0.16836 0.33078,-0.0367 0.68064,0.0471 1.01015,0 0.73218,-0.1046 -0.007,-0.0842 0.58926,-0.0842 0.0561,0 0.11512,-0.0177 0.16836,0 0.0667,0.0222 0.34507,0.32002 0.33672,0.33672 -0.19346,0.38691 -0.16836,-0.10834 -0.16836,0.16836 0.11224,0 0.0842,-0.0281 0.0842,0.0842"
       inkscape:connector-curvature="0" />
    <path
       style="fill:none;fill-rule:evenodd;stroke:#000000;stroke-width:0.66667002px;stroke-linecap:butt;stroke-linejoin:miter;stroke-opacity:1"
       d="m 383.31668,441.73644 c 0.10997,-0.0363 0.22262,-0.0645 0.33672,-0.0842 0.38814,-0.0672 0.78578,-0.0363 1.17835,-0.004 0.39258,0.0324 0.78969,0.0659 1.17868,0.004 0.14131,-0.0225 0.28031,-0.0575 0.4209,-0.0842 0.44369,-0.0841 0.90319,-0.0841 1.34688,0"
       id="path4543"
       inkscape:path-effect="#path-effect4545"
       inkscape:original-d="m 383.31668,441.73644 c 0.11224,-0.0281 0.22192,-0.0698 0.33672,-0.0842 0.77294,-0.0966 1.58031,0.0647 2.35703,0 0.14259,-0.0119 0.2787,-0.0684 0.4209,-0.0842 0.43723,-0.0486 0.90543,0 1.34688,0"
       inkscape:connector-curvature="0" />
    <path
       style="fill:none;fill-rule:evenodd;stroke:#000000;stroke-width:0.66667002;stroke-linecap:butt;stroke-linejoin:miter;stroke-miterlimit:4;stroke-dasharray:1.33334, 1.33334;stroke-dashoffset:0;stroke-opacity:1"
       d="m 113.12364,418.75535 272.74254,-0.33672 -0.16835,-25.25393"
       id="path4461"
       inkscape:connector-curvature="0"
       sodipodi:nodetypes="ccc" />
    <path
       style="fill:none;fill-rule:evenodd;stroke:#000000;stroke-width:2.6666801;stroke-linecap:butt;stroke-linejoin:miter;stroke-miterlimit:4;stroke-dasharray:none;stroke-opacity:1"
       d="m 252.62401,470.2833 -50.50788,0 0.43534,75.91822 25.07362,0.43534 0.0817,25.03626 -25.82875,-0.33671 0.18032,26.38315 50.94322,-0.3163 0.29587,-76.44372 -25.75902,-0.4209 0.16836,-25.42229 25.50648,0.16835 z"
       id="path4473"
       inkscape:connector-curvature="0"
       sodipodi:nodetypes="ccccccccccccc" />
    <path
       style="fill:none;fill-rule:evenodd;stroke:#000000;stroke-width:2.6666801;stroke-linecap:butt;stroke-linejoin:miter;stroke-miterlimit:4;stroke-dasharray:none;stroke-opacity:1"
       d="m 291.59926,431.12525 -25.8432,0.0842 0.16836,166.59182 51.27148,-0.41842 0.0782,-25.8696 -25.25394,0.27894 z"
       id="path4475"
       inkscape:connector-curvature="0"
       sodipodi:nodetypes="ccccccc" />
    <path
       style="fill:#000000;fill-opacity:1;stroke-width:1;stroke-miterlimit:4;stroke-dasharray:none"
       d="m 390.92572,605.87151 c -3.66668,-0.4243 -7.19195,-1.08353 -7.83394,-1.46495 -2.49884,-1.48463 -3.83278,-5.58793 -3.83278,-11.78991 0,-3.22747 -0.28252,-6.38905 -0.62783,-7.02574 -1.14999,-2.12045 -3.28703,-12.42507 -3.62741,-17.49104 -0.13458,-3.81787 1.92785,-6.67614 2.23949,2.00001 0.0645,2.01667 0.50515,4.71669 0.97935,6.00003 l 0.86218,2.33334 0.46469,-3.66668 c 0.52876,-4.1722 0.035,-16.72544 -0.93084,-23.66679 -0.35714,-2.56668 -0.68031,-6.9167 -0.71816,-9.66671 l -0.0688,-5.00003 -2.24983,4.66669 c -2.66685,5.53171 -2.72293,6.23988 -0.98952,12.4951 1.86269,9.25554 3.87033,19.63611 0.64201,14.28101 -0.66426,-0.50833 -3.64235,-16.61781 -3.81666,-19.05408 -0.26442,-3.69567 -0.0833,-4.81281 1.09303,-6.74248 0.77548,-1.27209 1.41109,-2.95981 1.41245,-3.75048 0.81511,-2.88858 0.0287,-1.19495 1.43159,-4.68571 0.51685,-1.27224 0.8132,-10.25132 0.92009,-27.87687 0.14564,-24.01813 0.54861,-46.39598 1.32281,-73.45955 0.27271,-9.53306 0.49386,-11.20579 1.89502,-14.3334 0.87246,-1.94747 2.33319,-4.22716 3.24606,-5.06599 1.48405,-1.36367 1.9662,-1.45629 4.55417,-0.87482 -2.83297,0.0329 2.3843,-1.08578 4.66141,3.45596 0.92849,1.81998 1.31411,3.95915 1.33715,7.41749 0.0178,2.67296 0.27724,7.85994 0.57651,11.52662 0.29928,3.66669 0.323,6.8167 0.0527,7.00004 -1.1131,0.75501 0.099,58.03849 1.4106,66.667 0.59715,3.92821 0.80636,4.33335 2.23773,4.33335 0.86845,0 1.529,-0.19582 1.46789,-0.43516 -0.1667,-0.65285 4.68361,-3.82126 6.57725,-4.29654 3.50522,-0.87975 6.34922,0.3362 10.32914,4.41622 l 3.82517,3.92138 5.41207,-0.21611 c 2.97664,-0.11887 5.41208,0.01 5.41208,0.28597 0,0.27615 0.54781,0.64534 1.21736,0.82044 1.24961,0.32677 5.44934,7.074 5.44934,8.75483 4.55595,4.88075 5.61112,-1.60128 9.7893,6.72459 0.92633,1.94254 0.96541,2.98929 0.29123,7.80074 -0.42827,3.05643 -1.21574,7.50715 -1.74994,9.8905 -0.57681,2.57343 -0.93234,7.31166 -0.87538,11.66672 0.0881,6.73991 -0.0676,7.738 -1.92467,12.3334 -1.11131,2.75001 -2.2502,6.05003 -2.53085,7.33337 -0.64209,2.936 -3.5244,9.24105 -5.0286,11.00005 -0.62712,0.73334 -1.5188,2.53335 -1.98153,4.00002 -1.20626,3.82336 -2.99025,6.0822 -6.36617,8.06061 -2.77153,1.62423 -3.42444,1.72177 -10.45649,1.5622 -4.12521,-0.0936 -10.05039,1.4e-4 -13.16707,0.20831 -3.11669,0.20818 -8.66671,0.0313 -12.3334,-0.39295 z m 24.66679,-2.19261 c 9.41594,1.25072 9.71104,-2.66698 15.61744,-5.02865 0.19212,0.11917 -0.89223,0.78723 -0.76348,0.3014 0.15503,-0.58501 1.34221,-1.51367 0.87375,-0.8514 -0.38896,0.55 -0.71181,0.71003 -0.71742,0.35562 -0.0159,-1.00703 2.13177,-6.57687 2.96487,-7.68899 8.49943,-15.99844 7.43636,-33.31312 11.34609,-50.26956 1.67819,-7.0931 -0.14683,-10.19633 -6.44885,-10.96549 -3.33293,-0.40678 -3.55013,-0.54837 -3.73073,-2.43194 -0.10547,-1.1 -0.82287,-3.26574 -1.59422,-4.81275 -1.71619,-3.44195 -4.29442,-4.48453 -10.59074,-4.28262 l -4.37669,0.14035 -2.89557,-3.43399 c -3.52631,-4.182 -7.4626,-4.03848 -9.39738,-4.59192 -1.07221,-0.30671 -4.29136,1.78582 -4.73681,1.51052 -0.51383,-0.31757 1.41618,-1.45656 1.71554,-0.97217 0.28973,0.46879 -0.44254,1.19957 -1.897,1.89316 -1.30288,0.6213 -2.36888,1.37408 -2.36888,1.67283 0,0.29876 -0.89309,0.5432 -1.98465,0.5432 -3.46855,0 -4.21943,-2.10953 -4.10289,-11.52669 0.0554,-4.47704 -0.21035,-12.0401 -0.59056,-16.80679 -4.49674,-21.03677 4.80959,-44.2732 -1.48817,-63.57033 -1.0568,2.85682 -2.54871,3.90337 -5.56445,3.90337 -1.57154,0 -3.05891,-0.32614 -3.30527,-0.72476 -1.1818,-1.9122 -1.55003,1.82974 -1.90821,19.39152 -0.21314,10.45005 -0.55106,24.85012 -0.75095,32.00016 -0.19988,7.15003 -0.49081,17.80009 -0.64651,23.66678 -0.15571,5.8667 0.0131,14.86674 0.37506,20.0001 0.36199,5.13336 0.82317,12.3334 1.02486,16.00008 0.20169,3.66669 0.82603,9.96672 1.38743,14.00007 0.82728,5.94351 0.93138,10.9344 0.5493,26.33347 -0.42022,16.936 -0.35002,19.30076 0.64618,21.76774 0.66194,1.63922 1.71041,2.96274 2.57152,3.24614 3.55916,1.17136 15.06332,1.97041 20.78734,1.44384 3.30002,-0.30357 7.80004,-0.3991 10.00005,-0.2123 z M 387.37322,423.66269 c 2.27489,-2.71471 3.31583,-4.45405 2.25362,-6.82032 -0.9269,-2.0555 -1.62001,-2.74307 -2.7652,-2.74307 -11.10509,5.29781 -3.22127,12.78257 0.51158,9.56339 z"
       id="path4519"
       inkscape:connector-curvature="0"
       sodipodi:nodetypes="csssccscssscsccssccssssccsscssssscsscccsssssssssscccccccccsssscsscsssssccssssssssssssccccc" />
    <path
       style="fill:none;fill-rule:evenodd;stroke:#000000;stroke-width:2.6666801;stroke-linecap:butt;stroke-linejoin:miter;stroke-miterlimit:4;stroke-dasharray:none;stroke-opacity:1"
       d="m 330.05374,521.00287 0.077,76.40973 25.67819,0.11905 0.13014,-76.61295 z"
       id="path4479"
       inkscape:connector-curvature="0"
       sodipodi:nodetypes="ccccc" />
    <path
       style="fill:none;fill-rule:evenodd;stroke:#000000;stroke-width:2.6666801;stroke-linecap:butt;stroke-linejoin:miter;stroke-miterlimit:4;stroke-dasharray:none;stroke-opacity:1"
       d="m 329.88786,469.70849 -0.0421,25.33812 25.96947,0.0842 -0.0421,-25.25394 z"
       id="path4477"
       inkscape:connector-curvature="0"
       sodipodi:nodetypes="ccccc" />
    <path
       style="fill:none;fill-rule:evenodd;stroke:#000000;stroke-width:2.6666801;stroke-linecap:butt;stroke-linejoin:miter;stroke-miterlimit:4;stroke-dasharray:none;stroke-opacity:1"
       d="m 137.47625,469.8363 -24.75907,-0.11905 -0.1828,25.55754 25.4223,0.25254 0,102.27845 25.84319,0 0.16836,-102.44681 25.92739,-0.0842 -0.18878,-25.37897 -25.1349,0.0986 -0.77206,-38.44376 -25.59066,0.33672 z"
       id="path4471"
       inkscape:connector-curvature="0"
       sodipodi:nodetypes="ccccccccccccc" />
    <path
       style="fill:none;fill-rule:evenodd;stroke:#000000;stroke-width:0.66667002px;stroke-linecap:butt;stroke-linejoin:miter;stroke-opacity:1"
       d="m 382.97996,520.78127 c -0.0498,0.0415 -0.085,0.10004 -0.0983,0.16344 -0.0133,0.0634 -0.004,0.13119 0.0245,0.18912 0.029,0.0579 0.0779,0.10563 0.13661,0.13305 0.0587,0.0274 0.12668,0.0344 0.1897,0.0195 0.0141,-0.003 0.0281,-0.008 0.0426,-0.009 0.007,-6.8e-4 0.0146,-5.8e-4 0.0217,8.1e-4 0.007,0.001 0.014,0.004 0.02,0.008 0.006,0.004 0.0109,0.0102 0.0143,0.0167 0.003,0.007 0.006,0.0138 0.007,0.0211 0.002,0.0147 -6.9e-4,0.0297 -0.005,0.0439 -0.004,0.0143 -0.009,0.0282 -0.013,0.0425 -0.004,0.0144 -0.006,0.0294 -0.003,0.044 0.002,0.0132 0.009,0.0256 0.0172,0.0359 0.009,0.0103 0.0193,0.0187 0.031,0.0253 0.0234,0.0132 0.05,0.0192 0.0763,0.0247 0.0263,0.006 0.0529,0.0111 0.0767,0.0235 0.0119,0.006 0.023,0.0141 0.032,0.024 0.009,0.01 0.016,0.0218 0.0193,0.0349 0.003,0.0137 0.003,0.028 0.002,0.042 -0.001,0.014 -0.003,0.0281 -0.002,0.0422 0.002,0.0166 0.008,0.0327 0.0169,0.0467 0.009,0.014 0.0212,0.026 0.0348,0.0357 0.0272,0.0194 0.0599,0.0297 0.0927,0.036 0.0328,0.006 0.0662,0.009 0.099,0.0153 0.0328,0.006 0.0657,0.0159 0.0932,0.0348 0.0331,0.0226 0.0563,0.0565 0.0804,0.0885 0.0241,0.032 0.0512,0.064 0.088,0.0798 0.0264,0.0113 0.056,0.0135 0.0846,0.0108 0.0286,-0.003 0.0565,-0.01 0.0845,-0.0166 0.0279,-0.007 0.0562,-0.013 0.0849,-0.0136 0.0287,-6.7e-4 0.0582,0.005 0.0828,0.0194 0.017,0.0103 0.0311,0.0248 0.0442,0.0399 0.0131,0.015 0.0254,0.0308 0.04,0.0443 0.0321,0.0299 0.074,0.048 0.11711,0.0559 0.0431,0.008 0.0876,0.006 0.13092,-7.6e-4 0.0867,-0.0133 0.16991,-0.0453 0.25705,-0.0551 0.0984,-0.0111 0.19735,0.006 0.29566,0.0177 0.0983,0.0114 0.20072,0.0165 0.2936,-0.0177 0.0575,-0.0212 0.10889,-0.0566 0.15501,-0.097 0.0461,-0.0404 0.0875,-0.0858 0.12995,-0.13005 0.0424,-0.0442 0.0863,-0.0876 0.13649,-0.12283 0.0501,-0.0353 0.1071,-0.0624 0.1678,-0.071 0.0279,-0.004 0.0563,-0.004 0.0842,0 0.0597,-0.0199 0.1166,-0.0484 0.16836,-0.0842 0.0656,-0.0454 0.12294,-0.10276 0.16836,-0.16836 0.0429,-0.0478 0.10436,-0.0786 0.16836,-0.0842 0.0719,-0.006 0.14253,0.0176 0.21347,0.031 0.0355,0.007 0.0718,0.0108 0.10767,0.007 0.0359,-0.004 0.0716,-0.0156 0.0998,-0.0382 0.031,-0.0249 0.0516,-0.0614 0.0842,-0.0842 0.0178,-0.0124 0.0386,-0.0202 0.06,-0.0241 0.0214,-0.004 0.0433,-0.004 0.0649,-0.002 0.0432,0.004 0.0851,0.0172 0.12762,0.026 0.092,0.019 0.18884,0.0181 0.27864,-0.009 0.0898,-0.0275 0.17211,-0.0824 0.22644,-0.159 0.0117,-0.0165 0.0222,-0.034 0.0353,-0.0495 0.0131,-0.0154 0.0294,-0.029 0.0489,-0.0347 0.0138,-0.004 0.0285,-0.004 0.0427,-0.002 0.0142,0.002 0.0282,0.006 0.0422,0.009 0.014,0.003 0.0283,0.006 0.0427,0.005 0.0144,-3.7e-4 0.0289,-0.004 0.0408,-0.0121 0.0134,-0.009 0.0223,-0.0238 0.0278,-0.0392 0.005,-0.0153 0.008,-0.0315 0.0106,-0.0476 0.003,-0.016 0.006,-0.0322 0.0128,-0.0469 0.007,-0.0147 0.018,-0.0281 0.0329,-0.0347 0.0135,-0.006 0.029,-0.006 0.0435,-0.003 0.0145,0.003 0.0283,0.008 0.0423,0.0129 0.014,0.005 0.0286,0.008 0.0433,0.008 0.007,-3e-4 0.0147,-0.002 0.0215,-0.005 0.007,-0.003 0.013,-0.007 0.0177,-0.013 0.005,-0.006 0.008,-0.0126 0.009,-0.0197 0.002,-0.007 0.002,-0.0146 0.001,-0.0219 -0.001,-0.0146 -0.006,-0.0286 -0.0104,-0.0426 -0.0339,-0.11697 -0.01,-0.24927 0.0635,-0.34661 0.0731,-0.0974 0.19349,-0.15744 0.31526,-0.15744 0.12177,0 0.24211,0.0601 0.31526,0.15744 0.0732,0.0973 0.0974,0.22964 0.0635,0.34661"
       id="path4523"
       inkscape:path-effect="#path-effect4525"
       inkscape:original-d="m 382.97996,520.78127 c 0.0667,0.0407 0.20275,0.45529 0.25254,0.50508 0.0199,0.0199 0.0716,-0.0251 0.0842,0 0.0251,0.0502 -0.0251,0.11816 0,0.16836 0.004,0.008 0.21497,0.0932 0.25254,0.16836 0.0125,0.0251 -0.0199,0.0643 0,0.0842 0.007,0.007 0.32962,0.16126 0.33672,0.16836 0.19875,0.19875 -0.46953,-0.0443 0.16836,0.16836 0.10101,0.0337 0.2357,-0.0337 0.33672,0 0.0377,0.0125 0.0457,0.0746 0.0842,0.0842 0.10667,0.0267 0.38039,0 0.50508,0 0.12753,0 0.47221,0.0585 0.58926,0 0.20651,-0.10326 0.38274,-0.31764 0.58925,-0.4209 0.0251,-0.0125 0.0561,0 0.0842,0 0.0561,-0.0281 0.11616,-0.0494 0.16836,-0.0842 0.066,-0.044 0.0931,-0.14326 0.16836,-0.16836 0.47702,0 0.0281,0.0561 0.16836,-0.0842 0.0583,-0.0583 0.34095,0.0267 0.4209,0 0.0377,-0.0125 0.0465,-0.0716 0.0842,-0.0842 0.0758,-0.0253 0.17678,0.0253 0.25254,0 0.12685,-0.0423 0.39466,-0.11315 0.50508,-0.16836 0.0355,-0.0177 0.0465,-0.0716 0.0842,-0.0842 0.0533,-0.0177 0.12167,0.0311 0.16836,0 0.0522,-0.0348 0.0398,-0.12399 0.0842,-0.16836 0.0397,-0.0397 0.12867,0.0397 0.16836,0 0.0199,-0.0199 -0.0199,-0.0643 0,-0.0842 0.0555,-0.0555 0.58638,0 0.75762,0"
       inkscape:connector-curvature="0" />
    <path
       style="fill:none;fill-rule:evenodd;stroke:#000000;stroke-width:0.66667002px;stroke-linecap:butt;stroke-linejoin:miter;stroke-opacity:1;marker-start:url(#Arrow1Lstart);marker-end:url(#Arrow1Lend)"
       d="m 113.12364,456.13119 -0.33672,-63.63994 299.38545,0.67345"
       id="path4147"
       inkscape:connector-curvature="0"
       sodipodi:nodetypes="ccc" />
    <ellipse
       style="opacity:1;fill:#ffffff;fill-opacity:1;stroke:none;stroke-width:3;stroke-linecap:square;stroke-miterlimit:4;stroke-dasharray:none;stroke-dashoffset:0;stroke-opacity:1"
       id="path5361"
       cx="385.50287"
       cy="418.8721"
       rx="4.6577616"
       ry="5.3497291" />
    <path
       style="fill:none;fill-rule:evenodd;stroke:#000000;stroke-width:0.66667002px;stroke-linecap:butt;stroke-linejoin:miter;stroke-opacity:1"
       d="m 391.81884,532.39808 c 1.37384,2.36956 2.5574,4.84941 3.53555,7.40782 0.24916,0.6517 0.48785,1.32283 0.50508,2.02032 0.01,0.39314 -0.0514,0.78863 0,1.17852 0.0861,0.65317 0.4766,1.22324 0.67344,1.85196 0.30517,0.97473 0.1303,2.02857 -0.077,3.0287 -0.20731,1.00013 -0.44569,2.02792 -0.25972,3.03224 0.12941,0.69886 0.45769,1.34311 0.67344,2.02032 0.34527,1.08376 0.39787,2.23482 0.50508,3.36719 0.15487,1.63582 0.42857,3.25765 0.67343,4.88243 0.21895,1.45288 0.41515,2.91082 0.50509,4.37735 0.13787,2.24801 0.0247,4.51133 -0.33672,6.73438"
       id="path4481"
       inkscape:path-effect="#path-effect4483"
       inkscape:original-d="m 391.81884,532.39808 c 1.55441,2.27076 2.34538,5.02749 3.53555,7.40782 0.33267,0.66534 0.0123,1.52756 0.50508,2.02032 0.20053,0.20053 -0.13445,0.90962 0,1.17852 0.30493,0.60986 0.37631,1.2577 0.67344,1.85196 0.36801,0.73601 -0.10299,5.35974 -0.33672,6.06094 -0.15916,0.47748 0.4688,1.61105 0.67344,2.02032 0.29712,0.59423 0.18816,2.41644 0.50508,3.36719 0.45039,1.35116 -0.0866,3.36233 0.67343,4.88243 0.55323,1.10644 -0.10148,3.16421 0.50509,4.37735 0.82665,1.6533 -1.06551,6.0056 -0.33672,6.73438"
       inkscape:connector-curvature="0" />
    <path
       style="fill:none;fill-rule:evenodd;stroke:#000000;stroke-width:0.66667002px;stroke-linecap:butt;stroke-linejoin:miter;stroke-opacity:1"
       d="m 408.48644,530.54613 c 0.20119,2.30818 0.0299,4.64843 -0.50508,6.90274 -0.456,1.92131 -1.17357,3.77933 -1.51523,5.72423 -0.39956,2.27451 -0.27432,4.60976 0,6.90274 0.067,0.56015 0.1429,1.12003 0.16836,1.6836 0.0381,0.84423 -0.0373,1.69052 -0.16836,2.52539 -0.39282,2.5027 -1.28113,4.90665 -1.6836,7.40782 -0.17927,1.11409 -0.26109,2.24131 -0.33672,3.36719 -0.21845,3.25211 -0.38683,6.50758 -0.50508,9.76487"
       id="path4485"
       inkscape:path-effect="#path-effect4487"
       inkscape:original-d="m 408.48644,530.54613 c -0.67247,2.21392 0.0473,4.69305 -0.50508,6.90274 -0.46605,1.8642 -0.91277,3.91684 -1.51523,5.72423 -0.11789,0.35365 -0.20366,6.49542 0,6.90274 0.18384,0.36768 0.31968,1.22963 0.16836,1.6836 -0.26747,0.80239 0.0911,1.74711 -0.16836,2.52539 -0.77623,2.32869 -1.06372,4.92829 -1.6836,7.40782 -0.27035,1.08141 -0.0655,2.28215 -0.33672,3.36719 -0.35741,1.42964 0.0522,9.20762 -0.50508,9.76487"
       inkscape:connector-curvature="0" />
    <path
       style="fill:none;fill-rule:evenodd;stroke:#000000;stroke-width:0.66667002px;stroke-linecap:butt;stroke-linejoin:miter;stroke-opacity:1"
       d="m 424.4806,538.45903 c -0.29885,1.88411 -0.74975,3.74407 -1.34688,5.55587 -0.40143,1.21801 -0.87222,2.42889 -1.01016,3.70391 -0.0547,0.50566 -0.0566,1.01904 -0.16835,1.51523 -0.23868,1.06007 -0.96006,1.96604 -1.17852,3.03047 -0.10223,0.49809 -0.09,1.01284 -0.16836,1.51524 -0.10424,0.66855 -0.36601,1.30059 -0.61688,1.92899 -0.25087,0.6284 -0.49523,1.26993 -0.56164,1.94329 -0.0496,0.50296 0.002,1.00984 0,1.51523 -0.007,2.13038 -0.94225,4.13769 -1.34687,6.2293 -0.48201,2.49168 -0.20549,5.08183 -0.67344,7.57619 -0.32709,1.74352 -1.0198,3.41756 -2.02032,4.88242"
       id="path4489"
       inkscape:path-effect="#path-effect4491"
       inkscape:original-d="m 424.4806,538.45903 c -0.11134,1.90146 -0.64387,3.79835 -1.34688,5.55587 -0.50557,1.26392 -0.41677,2.51713 -1.01016,3.70391 -0.19746,0.39493 0.0235,1.13139 -0.16835,1.51523 -0.49472,0.98944 -0.69646,2.06635 -1.17852,3.03047 -0.19721,0.39442 -0.0283,1.09492 -0.16836,1.51524 -0.42906,1.28717 -0.79513,2.72211 -1.17852,3.87228 -0.14468,0.43404 0.20242,1.11041 0,1.51523 -0.86114,1.7223 -0.75304,4.4478 -1.34687,6.2293 -0.5585,1.67549 -0.0787,6.38676 -0.67344,7.57619 -0.40961,0.81923 -2.33574,4.567 -2.02032,4.88242"
       inkscape:connector-curvature="0" />
    <g
       style="font-style:normal;font-weight:normal;font-size:15px;line-height:125%;font-family:sans-serif;letter-spacing:0px;word-spacing:0px;fill:#000000;fill-opacity:1;stroke:none;stroke-width:1px;stroke-linecap:butt;stroke-linejoin:miter;stroke-opacity:1"
       id="text4463"
       transform="matrix(0.66667,0,0,0.66667,91.799074,163.32998)">
      <path
         d="m 40.126028,438.25037 c 0.195,-0.045 0.3,-0.06 0.465,-0.06 0.855,0 1.08,0.375 1.77,2.955 0.255,0.975 0.615,2.73 0.615,2.985 0,0.24 -0.09,0.48 -0.315,0.75 -0.465,0.615 -0.765,1.005 -0.93,1.185 -0.315,0.33 -0.495,0.45 -0.69,0.45 -0.09,0 -0.195,-0.045 -0.36,-0.165 -0.225,-0.18 -0.39,-0.255 -0.555,-0.255 -0.33,0 -0.585,0.255 -0.585,0.585 0,0.375 0.33,0.66 0.765,0.66 0.96,0 2.925,-2.25 4.545,-5.22 1.02,-1.845 1.44,-2.925 1.44,-3.66 0,-0.45 -0.375,-0.825 -0.825,-0.825 -0.345,0 -0.585,0.225 -0.585,0.555 0,0.225 0.12,0.39 0.42,0.585 0.285,0.165 0.39,0.3 0.39,0.51 0,0.6 -0.555,1.77 -1.83,3.885 l -0.3,-1.74 c -0.225,-1.32 -1.065,-3.795 -1.29,-3.795 l -0.06,0 c -0.015,0.015 -0.075,0.015 -0.135,0.015 -0.135,0.015 -0.675,0.105 -1.47,0.255 -0.075,0.015 -0.27,0.06 -0.48,0.09 l 0,0.255 z"
         style="font-style:italic;font-variant:normal;font-weight:normal;font-stretch:normal;font-family:Times;-inkscape-font-specification:Times"
         id="path5068"
         inkscape:connector-curvature="0" />
    </g>
  </g>
</svg>
